<?xml version="1.0" ?>
<mxfile host="app.diagrams.net">
  <diagram name="GottaGoGrocery WBS">
    <mxGraphModel>
      <root>
        <mxCell id="0"/>
        <mxCell id="1" parent="0"/>
        <mxCell id="main" value="GottaGoGrocery" style="shape=rectangle;whiteSpace=wrap;html=1;fillColor=#DAE8FC" vertex="1" parent="1">
          <mxGeometry x="400" y="40" width="180" height="60" as="geometry"/>
        </mxCell>
        <mxCell id="cat_0" value="1. Project Management" style="shape=rectangle;whiteSpace=wrap;html=1;fillColor=#E1D5E7" vertex="1" parent="1">
          <mxGeometry x="100" y="150" width="200" height="60" as="geometry"/>
        </mxCell>
        <mxCell id="cat_1" value="2. Frontend Development (React)" style="shape=rectangle;whiteSpace=wrap;html=1;fillColor=#E1D5E7" vertex="1" parent="1">
          <mxGeometry x="350" y="150" width="200" height="60" as="geometry"/>
        </mxCell>
        <mxCell id="cat_2" value="3. Backend Development (Node.js + Express)" style="shape=rectangle;whiteSpace=wrap;html=1;fillColor=#E1D5E7" vertex="1" parent="1">
          <mxGeometry x="100" y="270" width="200" height="60" as="geometry"/>
        </mxCell>
        <mxCell id="cat_3" value="4. Database Design (MySQL)" style="shape=rectangle;whiteSpace=wrap;html=1;fillColor=#E1D5E7" vertex="1" parent="1">
          <mxGeometry x="350" y="270" width="200" height="60" as="geometry"/>
        </mxCell>
        <mxCell id="cat_4" value="5. Testing &amp; QA" style="shape=rectangle;whiteSpace=wrap;html=1;fillColor=#E1D5E7" vertex="1" parent="1">
          <mxGeometry x="100" y="390" width="200" height="60" as="geometry"/>
        </mxCell>
        <mxCell id="cat_5" value="6. Deployment" style="shape=rectangle;whiteSpace=wrap;html=1;fillColor=#E1D5E7" vertex="1" parent="1">
          <mxGeometry x="350" y="390" width="200" height="60" as="geometry"/>
        </mxCell>
        <mxCell id="cat_6" value="7. Documentation &amp; Training" style="shape=rectangle;whiteSpace=wrap;html=1;fillColor=#E1D5E7" vertex="1" parent="1">
          <mxGeometry x="100" y="510" width="200" height="60" as="geometry"/>
        </mxCell>
      </root>
    </mxGraphModel>
  </diagram>
</mxfile>
